Coordinates
version=1
nRows=21
nColumns=12
inDegrees=yes

Units are S.I. units (second, meters, Newtons, ...)
Angles are in degrees

endheader
time	SC_y	SC_z	SC_x	AC_y	AC_z	AC_x	GH_y	GH_z	GH_yy	EL_x	PS_y
       0.0               -19.8          38.15           75.3          47.38         -5.019         -11.34         -1.137          72.85          171.2          32.89          126.7
   0.01318               -19.8          38.15           75.3          47.38         -5.019         -11.34         -1.161          72.85          171.2           32.9          126.7
   0.02636              -19.81          38.15           75.3          47.38          -5.02         -11.33         -1.185          72.86          171.1           32.9          126.7
   0.03954              -19.81          38.14           75.3          47.38         -5.021         -11.33         -1.212          72.86          171.1          32.91          126.7
   0.05271              -19.81          38.14           75.3          47.39         -5.021         -11.33          -1.24          72.86          171.1          32.92          126.7
   0.06589              -19.81          38.14           75.3          47.39         -5.022         -11.32          -1.27          72.86          171.0          32.93          126.7
   0.07907              -19.82          38.13          75.31          47.39         -5.022         -11.32         -1.302          72.86          171.0          32.94          126.7
   0.09225              -19.82          38.13          75.31           47.4         -5.023         -11.31         -1.336          72.86          171.0          32.95          126.7
    0.1054              -19.82          38.13          75.31           47.4         -5.024         -11.31         -1.373          72.86          170.9          32.96          126.7
    0.1186              -19.82          38.12          75.31           47.4         -5.025          -11.3         -1.413          72.86          170.9          32.97          126.7
    0.1318              -19.83          38.12          75.31          47.41         -5.025         -11.29         -1.455          72.86          170.8          32.98          126.7
     0.145              -19.83          38.11          75.32          47.41         -5.026         -11.29           -1.5          72.86          170.8          32.99          126.7
    0.1581              -19.84          38.11          75.32          47.41         -5.027         -11.28          -1.55          72.87          170.7          33.01          126.7
    0.1713              -19.84           38.1          75.32          47.42         -5.029         -11.27         -1.603          72.87          170.7          33.02          126.7
    0.1845              -19.84           38.1          75.33          47.42          -5.03         -11.26          -1.66          72.87          170.6          33.04          126.8
    0.1977              -19.85          38.09          75.33          47.43         -5.031         -11.26         -1.722          72.87          170.6          33.06          126.8
    0.2109              -19.86          38.08          75.33          47.44         -5.032         -11.25          -1.79          72.87          170.5          33.08          126.8
     0.224              -19.86          38.08          75.34          47.44         -5.034         -11.24         -1.863          72.87          170.4           33.1          126.8
    0.2372              -19.87          38.07          75.34          47.45         -5.036         -11.22         -1.944          72.88          170.3          33.12          126.8
    0.2504              -19.88          38.06          75.35          47.46         -5.037         -11.21         -2.032          72.88          170.2          33.15          126.8
    0.2636              -19.88          38.05          75.35          47.47         -5.039          -11.2         -2.129          72.88          170.1          33.17          126.8
